<svg width="55" height="55" viewBox="0 0 55 55" fill="none" xmlns="http://www.w3.org/2000/svg">
<g clip-path="url(#clip0_40_728)">
<rect x="18.5393" width="17.9213" height="3.10734" fill="black"/>
<rect x="12.3596" y="3.10742" width="6.17977" height="3.10734" fill="black"/>
<rect x="9.26953" y="5.9043" width="3.08988" height="3.41808" fill="black"/>
<rect x="6.17969" y="9.01172" width="3.08989" height="3.41808" fill="black"/>
<rect x="3.08984" y="12.1182" width="3.08988" height="6.21469" fill="black"/>
<rect y="18.333" width="3.08988" height="18.3333" fill="black"/>
<rect x="3.08984" y="27.6553" width="3.08988" height="14.9152" fill="black"/>
<rect x="6.17969" y="30.7627" width="3.08989" height="5.90396" fill="black"/>
<rect x="9.26953" y="33.8701" width="3.08988" height="5.90395" fill="black"/>
<rect x="15.1404" y="30.4521" width="12.6685" height="3.41808" fill="black"/>
<rect x="15.1404" y="42.5703" width="12.6685" height="3.41808" fill="black"/>
<rect x="27.8091" y="33.5596" width="3.08989" height="9.32203" fill="black"/>
<rect x="39.2415" y="33.5596" width="6.79775" height="6.21469" fill="black"/>
<rect x="46.0393" y="33.5596" width="8.96067" height="3.10735" fill="black"/>
<rect x="48.8203" y="36.667" width="3.08988" height="6.21469" fill="black"/>
<rect x="51.9102" y="18.333" width="3.08989" height="15.5367" fill="black"/>
<rect x="48.8203" y="30.4521" width="3.08988" height="3.10735" fill="black"/>
<rect x="45.7305" y="42.5703" width="3.08989" height="3.10734" fill="black"/>
<rect x="6.17969" y="42.5703" width="3.08989" height="3.10735" fill="black"/>
<rect x="42.6404" y="45.6777" width="3.08989" height="3.10734" fill="black"/>
<rect x="9.26953" y="45.6777" width="3.08988" height="3.10734" fill="black"/>
<rect x="36.4607" y="48.7852" width="6.17977" height="3.10734" fill="black"/>
<rect x="12.3596" y="48.7852" width="6.17977" height="3.10734" fill="black"/>
<rect x="18.5393" y="51.8926" width="17.9213" height="3.10735" fill="black"/>
<rect x="48.8203" y="12.1182" width="3.08988" height="6.52542" fill="black"/>
<rect x="45.7305" y="9.01172" width="3.08989" height="3.41808" fill="black"/>
<rect x="42.6404" y="5.9043" width="3.08989" height="3.41808" fill="black"/>
<rect x="36.4607" y="2.79688" width="6.17977" height="3.41808" fill="black"/>
<rect x="30.8989" y="36.667" width="8.96067" height="6.21469" fill="black"/>
<rect x="12.0505" y="33.8701" width="3.39887" height="9.0113" fill="black"/>
<rect x="3.08984" y="18.333" width="3.08988" height="9.32203" fill="url(#paint0_linear_40_728)"/>
<rect x="6.17969" y="12.4297" width="3.08989" height="18.3333" fill="url(#paint1_linear_40_728)"/>
<rect x="9.26953" y="9.32227" width="3.08989" height="24.548" fill="url(#paint2_linear_40_728)"/>
<rect x="12.3596" y="6.21484" width="3.08988" height="27.6554" fill="url(#paint3_linear_40_728)"/>
<rect x="15.4495" y="6.21484" width="3.08988" height="24.2373" fill="url(#paint4_linear_40_728)"/>
<rect x="18.5393" y="3.10742" width="3.08989" height="27.3446" fill="url(#paint5_linear_40_728)"/>
<rect x="21.6292" y="3.10742" width="3.08988" height="27.3446" fill="url(#paint6_linear_40_728)"/>
<rect x="24.719" y="3.10742" width="3.08988" height="27.3446" fill="url(#paint7_linear_40_728)"/>
<rect x="27.8088" y="3.10742" width="3.08988" height="30.452" fill="url(#paint8_linear_40_728)"/>
<rect x="30.8987" y="3.10742" width="3.08988" height="27.6554" fill="url(#paint9_linear_40_728)"/>
<rect x="33.9888" y="3.10742" width="2.7809" height="24.8588" fill="url(#paint10_linear_40_728)"/>
<rect x="36.7695" y="6.21484" width="3.08989" height="15.5367" fill="url(#paint11_linear_40_728)"/>
<rect x="39.8594" y="6.21484" width="3.08989" height="6.21469" fill="url(#paint12_linear_40_728)"/>
<rect x="15.4495" y="33.8701" width="12.3595" height="9.0113" fill="white"/>
<g filter="url(#filter0_d_40_728)">
<rect x="18.8616" y="36.4551" width="5.54754" height="3.96254" fill="#F0E2C4"/>
</g>
<rect x="15.4495" y="33.8701" width="2.47191" height="2.48587" fill="#636363"/>
<rect x="25.3372" y="33.8701" width="2.47191" height="2.48587" fill="#636363"/>
<rect x="25.3372" y="40.3955" width="2.47191" height="2.48587" fill="#636363"/>
<rect x="15.4495" y="40.3955" width="2.47191" height="2.48587" fill="#636363"/>
<rect x="6.17969" y="36.667" width="3.08988" height="5.90395" fill="white"/>
<rect x="9.26953" y="39.7744" width="3.08988" height="3.10734" fill="white"/>
<rect x="12.3594" y="42.8818" width="3.08988" height="3.10734" fill="white"/>
<rect x="15.7583" y="45.9893" width="20.7022" height="3.10735" fill="white"/>
<rect x="27.8088" y="42.8818" width="14.8314" height="3.10734" fill="white"/>
<rect x="39.8594" y="39.7744" width="6.17977" height="3.10734" fill="white"/>
<rect x="9.26953" y="42.8818" width="3.08988" height="2.79661" fill="#636363"/>
<rect x="12.3594" y="45.9893" width="3.39887" height="2.79661" fill="#636363"/>
<rect x="18.5391" y="49.0967" width="17.9213" height="2.79661" fill="#636363"/>
<rect x="36.4604" y="45.9893" width="6.17977" height="2.79661" fill="#636363"/>
<rect x="42.6404" y="42.8818" width="3.39887" height="2.79661" fill="#636363"/>
<rect x="46.0391" y="36.667" width="2.7809" height="5.90395" fill="#636363"/>
<rect x="30.8989" y="30.7627" width="3.08989" height="5.90395" fill="#4D0000"/>
<rect x="33.9888" y="27.9668" width="2.7809" height="8.70056" fill="#4D0000"/>
<rect x="36.7698" y="21.752" width="3.08989" height="11.8079" fill="#4D0000"/>
<rect x="39.8596" y="12.4297" width="3.08989" height="21.1299" fill="#4D0000"/>
<rect x="42.9495" y="9.32227" width="2.7809" height="24.2373" fill="#4D0000"/>
<rect x="45.7305" y="12.4297" width="3.08988" height="21.1299" fill="#4D0000"/>
<rect x="48.8203" y="18.6445" width="3.08989" height="11.8079" fill="#4D0000"/>
<rect x="36.7698" y="33.5596" width="2.47191" height="3.10735" fill="#4D0000"/>
</g>
<defs>
<filter id="filter0_d_40_728" x="-48.9471" y="-31.3536" width="141.165" height="139.58" filterUnits="userSpaceOnUse" color-interpolation-filters="sRGB">
<feFlood flood-opacity="0" result="BackgroundImageFix"/>
<feColorMatrix in="SourceAlpha" type="matrix" values="0 0 0 0 0 0 0 0 0 0 0 0 0 0 0 0 0 0 127 0" result="hardAlpha"/>
<feOffset/>
<feGaussianBlur stdDeviation="33.9043"/>
<feComposite in2="hardAlpha" operator="out"/>
<feColorMatrix type="matrix" values="0 0 0 0 0.975 0 0 0 0 0.865128 0 0 0 0 0.629687 0 0 0 1 0"/>
<feBlend mode="normal" in2="BackgroundImageFix" result="effect1_dropShadow_40_728"/>
<feBlend mode="normal" in="SourceGraphic" in2="effect1_dropShadow_40_728" result="shape"/>
</filter>
<linearGradient id="paint0_linear_40_728" x1="4.63479" y1="18.333" x2="4.63479" y2="27.655" gradientUnits="userSpaceOnUse">
<stop stop-color="#FF4C4C"/>
<stop offset="1" stop-color="#C60000"/>
</linearGradient>
<linearGradient id="paint1_linear_40_728" x1="7.72463" y1="12.4297" x2="7.72463" y2="30.763" gradientUnits="userSpaceOnUse">
<stop stop-color="#FF4C4C"/>
<stop offset="1" stop-color="#C60000"/>
</linearGradient>
<linearGradient id="paint2_linear_40_728" x1="10.8145" y1="9.32227" x2="10.8145" y2="33.8703" gradientUnits="userSpaceOnUse">
<stop stop-color="#FF4C4C"/>
<stop offset="1" stop-color="#C60000"/>
</linearGradient>
<linearGradient id="paint3_linear_40_728" x1="13.9046" y1="6.21484" x2="13.9046" y2="33.8702" gradientUnits="userSpaceOnUse">
<stop stop-color="#FF4C4C"/>
<stop offset="1" stop-color="#C60000"/>
</linearGradient>
<linearGradient id="paint4_linear_40_728" x1="16.9944" y1="6.21484" x2="16.9944" y2="30.4521" gradientUnits="userSpaceOnUse">
<stop stop-color="#FF4C4C"/>
<stop offset="1" stop-color="#C60000"/>
</linearGradient>
<linearGradient id="paint5_linear_40_728" x1="20.0842" y1="3.10742" x2="20.0842" y2="30.452" gradientUnits="userSpaceOnUse">
<stop stop-color="#FF4C4C"/>
<stop offset="1" stop-color="#C60000"/>
</linearGradient>
<linearGradient id="paint6_linear_40_728" x1="23.1741" y1="3.10742" x2="23.1741" y2="30.452" gradientUnits="userSpaceOnUse">
<stop stop-color="#FF4C4C"/>
<stop offset="1" stop-color="#C60000"/>
</linearGradient>
<linearGradient id="paint7_linear_40_728" x1="26.2639" y1="3.10742" x2="26.2639" y2="30.452" gradientUnits="userSpaceOnUse">
<stop stop-color="#FF4C4C"/>
<stop offset="1" stop-color="#C60000"/>
</linearGradient>
<linearGradient id="paint8_linear_40_728" x1="29.3538" y1="3.10742" x2="29.3538" y2="33.5594" gradientUnits="userSpaceOnUse">
<stop stop-color="#FF4C4C"/>
<stop offset="1" stop-color="#C60000"/>
</linearGradient>
<linearGradient id="paint9_linear_40_728" x1="32.4436" y1="3.10742" x2="32.4436" y2="30.7628" gradientUnits="userSpaceOnUse">
<stop stop-color="#FF4C4C"/>
<stop offset="1" stop-color="#C60000"/>
</linearGradient>
<linearGradient id="paint10_linear_40_728" x1="35.3792" y1="3.10742" x2="35.3792" y2="27.9662" gradientUnits="userSpaceOnUse">
<stop stop-color="#FF4C4C"/>
<stop offset="1" stop-color="#C60000"/>
</linearGradient>
<linearGradient id="paint11_linear_40_728" x1="38.3145" y1="6.21484" x2="38.3145" y2="21.7516" gradientUnits="userSpaceOnUse">
<stop stop-color="#FF4C4C"/>
<stop offset="1" stop-color="#C60000"/>
</linearGradient>
<linearGradient id="paint12_linear_40_728" x1="41.4043" y1="6.21484" x2="41.4043" y2="12.4295" gradientUnits="userSpaceOnUse">
<stop stop-color="#FF4C4C"/>
<stop offset="1" stop-color="#C60000"/>
</linearGradient>
<clipPath id="clip0_40_728">
<rect width="55" height="55" fill="white"/>
</clipPath>
</defs>
</svg>
